<mxfile host="app.diagrams.net" modified="2022-01-08T10:30:30.919Z" agent="5.0 (Windows NT 10.0; Win64; x64) AppleWebKit/537.36 (KHTML, like Gecko) Chrome/97.0.4692.71 Safari/537.36" etag="wd8vX565vQOHzWTY9kon" version="16.2.4" type="github">
  <diagram id="OfLxraaS_ED8Jk0FEr-J" name="Фильтр">
    <mxGraphModel dx="2827" dy="802" grid="1" gridSize="10" guides="1" tooltips="1" connect="1" arrows="1" fold="1" page="1" pageScale="1" pageWidth="827" pageHeight="1169" math="0" shadow="0">
      <root>
        <mxCell id="0" />
        <mxCell id="1" parent="0" />
        <mxCell id="gcRcm8Jods9z5z1IxG55-41" value="" style="rounded=0;whiteSpace=wrap;html=1;fontColor=#000000;" vertex="1" parent="1">
          <mxGeometry x="-240" y="160" width="240" height="180" as="geometry" />
        </mxCell>
        <mxCell id="gcRcm8Jods9z5z1IxG55-7" value="" style="rounded=0;whiteSpace=wrap;html=1;fontColor=#000000;" vertex="1" parent="1">
          <mxGeometry x="520" y="160" width="210" height="440" as="geometry" />
        </mxCell>
        <mxCell id="gcRcm8Jods9z5z1IxG55-6" value="" style="rounded=0;whiteSpace=wrap;html=1;fontColor=#000000;" vertex="1" parent="1">
          <mxGeometry x="280" y="160" width="210" height="190" as="geometry" />
        </mxCell>
        <mxCell id="gcRcm8Jods9z5z1IxG55-5" value="" style="rounded=0;whiteSpace=wrap;html=1;fontColor=#000000;" vertex="1" parent="1">
          <mxGeometry x="40" y="160" width="210" height="290" as="geometry" />
        </mxCell>
        <mxCell id="l3E78qla2xmzJA8PlQl0-1" value="1&lt;br&gt;&lt;font color=&quot;#cccccc&quot;&gt;12345&lt;/font&gt;" style="rounded=0;whiteSpace=wrap;html=1;" parent="1" vertex="1">
          <mxGeometry x="530" y="200" width="40" height="40" as="geometry" />
        </mxCell>
        <mxCell id="l3E78qla2xmzJA8PlQl0-2" value="2&lt;br&gt;&lt;font color=&quot;#cccccc&quot;&gt;12345&lt;/font&gt;" style="rounded=0;whiteSpace=wrap;html=1;" parent="1" vertex="1">
          <mxGeometry x="580" y="200" width="40" height="40" as="geometry" />
        </mxCell>
        <mxCell id="l3E78qla2xmzJA8PlQl0-3" value="3&lt;br&gt;&lt;font color=&quot;#cccccc&quot;&gt;12345&lt;/font&gt;" style="rounded=0;whiteSpace=wrap;html=1;" parent="1" vertex="1">
          <mxGeometry x="630" y="200" width="40" height="40" as="geometry" />
        </mxCell>
        <mxCell id="l3E78qla2xmzJA8PlQl0-4" value="4&lt;br&gt;&lt;font color=&quot;#cccccc&quot;&gt;12345&lt;/font&gt;" style="rounded=0;whiteSpace=wrap;html=1;" parent="1" vertex="1">
          <mxGeometry x="680" y="200" width="40" height="40" as="geometry" />
        </mxCell>
        <mxCell id="l3E78qla2xmzJA8PlQl0-5" value="5&lt;br&gt;&lt;font color=&quot;#cccccc&quot;&gt;12345&lt;/font&gt;" style="rounded=0;whiteSpace=wrap;html=1;" parent="1" vertex="1">
          <mxGeometry x="530" y="250" width="40" height="40" as="geometry" />
        </mxCell>
        <mxCell id="l3E78qla2xmzJA8PlQl0-6" value="6&lt;br&gt;&lt;font color=&quot;#cccccc&quot;&gt;12345&lt;/font&gt;" style="rounded=0;whiteSpace=wrap;html=1;" parent="1" vertex="1">
          <mxGeometry x="580" y="250" width="40" height="40" as="geometry" />
        </mxCell>
        <mxCell id="l3E78qla2xmzJA8PlQl0-7" value="7&lt;br&gt;&lt;font color=&quot;#cccccc&quot;&gt;12345&lt;/font&gt;" style="rounded=0;whiteSpace=wrap;html=1;" parent="1" vertex="1">
          <mxGeometry x="630" y="250" width="40" height="40" as="geometry" />
        </mxCell>
        <mxCell id="l3E78qla2xmzJA8PlQl0-8" value="8&lt;br&gt;&lt;font color=&quot;#cccccc&quot;&gt;12345&lt;/font&gt;" style="rounded=0;whiteSpace=wrap;html=1;" parent="1" vertex="1">
          <mxGeometry x="680" y="250" width="40" height="40" as="geometry" />
        </mxCell>
        <mxCell id="l3E78qla2xmzJA8PlQl0-9" value="9&lt;br&gt;&lt;font color=&quot;#cccccc&quot;&gt;12345&lt;/font&gt;" style="rounded=0;whiteSpace=wrap;html=1;" parent="1" vertex="1">
          <mxGeometry x="530" y="300" width="40" height="40" as="geometry" />
        </mxCell>
        <mxCell id="l3E78qla2xmzJA8PlQl0-10" value="10&lt;br&gt;&lt;font color=&quot;#cccccc&quot;&gt;12345&lt;/font&gt;" style="rounded=0;whiteSpace=wrap;html=1;" parent="1" vertex="1">
          <mxGeometry x="580" y="300" width="40" height="40" as="geometry" />
        </mxCell>
        <mxCell id="l3E78qla2xmzJA8PlQl0-11" value="11&lt;br&gt;&lt;font color=&quot;#cccccc&quot;&gt;12345&lt;/font&gt;" style="rounded=0;whiteSpace=wrap;html=1;" parent="1" vertex="1">
          <mxGeometry x="630" y="300" width="40" height="40" as="geometry" />
        </mxCell>
        <mxCell id="l3E78qla2xmzJA8PlQl0-12" value="12&lt;br&gt;&lt;font color=&quot;#cccccc&quot;&gt;12345&lt;/font&gt;" style="rounded=0;whiteSpace=wrap;html=1;" parent="1" vertex="1">
          <mxGeometry x="680" y="300" width="40" height="40" as="geometry" />
        </mxCell>
        <mxCell id="l3E78qla2xmzJA8PlQl0-13" value="13&lt;br&gt;&lt;font color=&quot;#cccccc&quot;&gt;12345&lt;/font&gt;" style="rounded=0;whiteSpace=wrap;html=1;" parent="1" vertex="1">
          <mxGeometry x="530" y="350" width="40" height="40" as="geometry" />
        </mxCell>
        <mxCell id="l3E78qla2xmzJA8PlQl0-14" value="14&lt;br&gt;&lt;font color=&quot;#cccccc&quot;&gt;12345&lt;/font&gt;" style="rounded=0;whiteSpace=wrap;html=1;" parent="1" vertex="1">
          <mxGeometry x="580" y="350" width="40" height="40" as="geometry" />
        </mxCell>
        <mxCell id="l3E78qla2xmzJA8PlQl0-15" value="15&lt;br&gt;&lt;font color=&quot;#cccccc&quot;&gt;12345&lt;/font&gt;" style="rounded=0;whiteSpace=wrap;html=1;" parent="1" vertex="1">
          <mxGeometry x="630" y="350" width="40" height="40" as="geometry" />
        </mxCell>
        <mxCell id="l3E78qla2xmzJA8PlQl0-16" value="16&lt;br&gt;&lt;font color=&quot;#cccccc&quot;&gt;12345&lt;/font&gt;" style="rounded=0;whiteSpace=wrap;html=1;" parent="1" vertex="1">
          <mxGeometry x="680" y="350" width="40" height="40" as="geometry" />
        </mxCell>
        <mxCell id="l3E78qla2xmzJA8PlQl0-17" value="17&lt;br&gt;&lt;font color=&quot;#cccccc&quot;&gt;12345&lt;/font&gt;" style="rounded=0;whiteSpace=wrap;html=1;" parent="1" vertex="1">
          <mxGeometry x="530" y="400" width="40" height="40" as="geometry" />
        </mxCell>
        <mxCell id="l3E78qla2xmzJA8PlQl0-18" value="18&lt;br&gt;&lt;font color=&quot;#cccccc&quot;&gt;12345&lt;/font&gt;" style="rounded=0;whiteSpace=wrap;html=1;" parent="1" vertex="1">
          <mxGeometry x="580" y="400" width="40" height="40" as="geometry" />
        </mxCell>
        <mxCell id="l3E78qla2xmzJA8PlQl0-19" value="19&lt;br&gt;&lt;font color=&quot;#cccccc&quot;&gt;12345&lt;/font&gt;" style="rounded=0;whiteSpace=wrap;html=1;" parent="1" vertex="1">
          <mxGeometry x="630" y="400" width="40" height="40" as="geometry" />
        </mxCell>
        <mxCell id="l3E78qla2xmzJA8PlQl0-20" value="20&lt;br&gt;&lt;font color=&quot;#cccccc&quot;&gt;12345&lt;/font&gt;" style="rounded=0;whiteSpace=wrap;html=1;" parent="1" vertex="1">
          <mxGeometry x="680" y="400" width="40" height="40" as="geometry" />
        </mxCell>
        <mxCell id="l3E78qla2xmzJA8PlQl0-21" value="21&lt;br&gt;&lt;font color=&quot;#cccccc&quot;&gt;12345&lt;/font&gt;" style="rounded=0;whiteSpace=wrap;html=1;" parent="1" vertex="1">
          <mxGeometry x="530" y="450" width="40" height="40" as="geometry" />
        </mxCell>
        <mxCell id="l3E78qla2xmzJA8PlQl0-22" value="22&lt;br&gt;&lt;font color=&quot;#cccccc&quot;&gt;12345&lt;/font&gt;" style="rounded=0;whiteSpace=wrap;html=1;" parent="1" vertex="1">
          <mxGeometry x="580" y="450" width="40" height="40" as="geometry" />
        </mxCell>
        <mxCell id="l3E78qla2xmzJA8PlQl0-23" value="23&lt;br&gt;&lt;font color=&quot;#cccccc&quot;&gt;12345&lt;/font&gt;" style="rounded=0;whiteSpace=wrap;html=1;" parent="1" vertex="1">
          <mxGeometry x="630" y="450" width="40" height="40" as="geometry" />
        </mxCell>
        <mxCell id="l3E78qla2xmzJA8PlQl0-24" value="24&lt;br&gt;&lt;font color=&quot;#cccccc&quot;&gt;12345&lt;/font&gt;" style="rounded=0;whiteSpace=wrap;html=1;" parent="1" vertex="1">
          <mxGeometry x="680" y="450" width="40" height="40" as="geometry" />
        </mxCell>
        <mxCell id="l3E78qla2xmzJA8PlQl0-25" value="25&lt;br&gt;&lt;font color=&quot;#cccccc&quot;&gt;12345&lt;/font&gt;" style="rounded=0;whiteSpace=wrap;html=1;" parent="1" vertex="1">
          <mxGeometry x="530" y="500" width="40" height="40" as="geometry" />
        </mxCell>
        <mxCell id="l3E78qla2xmzJA8PlQl0-26" value="26&lt;br&gt;&lt;font color=&quot;#cccccc&quot;&gt;12345&lt;/font&gt;" style="rounded=0;whiteSpace=wrap;html=1;" parent="1" vertex="1">
          <mxGeometry x="580" y="500" width="40" height="40" as="geometry" />
        </mxCell>
        <mxCell id="l3E78qla2xmzJA8PlQl0-27" value="27&lt;br&gt;&lt;font color=&quot;#cccccc&quot;&gt;12345&lt;/font&gt;" style="rounded=0;whiteSpace=wrap;html=1;" parent="1" vertex="1">
          <mxGeometry x="630" y="500" width="40" height="40" as="geometry" />
        </mxCell>
        <mxCell id="l3E78qla2xmzJA8PlQl0-28" value="28&lt;br&gt;&lt;font color=&quot;#cccccc&quot;&gt;12345&lt;/font&gt;" style="rounded=0;whiteSpace=wrap;html=1;" parent="1" vertex="1">
          <mxGeometry x="680" y="500" width="40" height="40" as="geometry" />
        </mxCell>
        <mxCell id="l3E78qla2xmzJA8PlQl0-29" value="29&lt;br&gt;&lt;font color=&quot;#cccccc&quot;&gt;12345&lt;/font&gt;" style="rounded=0;whiteSpace=wrap;html=1;" parent="1" vertex="1">
          <mxGeometry x="530" y="550" width="40" height="40" as="geometry" />
        </mxCell>
        <mxCell id="l3E78qla2xmzJA8PlQl0-30" value="30&lt;br&gt;&lt;font color=&quot;#cccccc&quot;&gt;12345&lt;/font&gt;" style="rounded=0;whiteSpace=wrap;html=1;" parent="1" vertex="1">
          <mxGeometry x="580" y="550" width="40" height="40" as="geometry" />
        </mxCell>
        <mxCell id="l3E78qla2xmzJA8PlQl0-31" value="31&lt;br&gt;&lt;font color=&quot;#cccccc&quot;&gt;12345&lt;/font&gt;" style="rounded=0;whiteSpace=wrap;html=1;" parent="1" vertex="1">
          <mxGeometry x="630" y="550" width="40" height="40" as="geometry" />
        </mxCell>
        <mxCell id="l3E78qla2xmzJA8PlQl0-32" value="1&lt;br&gt;&lt;font color=&quot;#cccccc&quot;&gt;12345&lt;/font&gt;" style="rounded=0;whiteSpace=wrap;html=1;" parent="1" vertex="1">
          <mxGeometry x="290" y="200" width="40" height="40" as="geometry" />
        </mxCell>
        <mxCell id="l3E78qla2xmzJA8PlQl0-33" value="2&lt;br&gt;&lt;font color=&quot;#cccccc&quot;&gt;12345&lt;/font&gt;" style="rounded=0;whiteSpace=wrap;html=1;" parent="1" vertex="1">
          <mxGeometry x="340" y="200" width="40" height="40" as="geometry" />
        </mxCell>
        <mxCell id="l3E78qla2xmzJA8PlQl0-34" value="3&lt;br&gt;&lt;font color=&quot;#cccccc&quot;&gt;12345&lt;/font&gt;" style="rounded=0;whiteSpace=wrap;html=1;" parent="1" vertex="1">
          <mxGeometry x="390" y="200" width="40" height="40" as="geometry" />
        </mxCell>
        <mxCell id="l3E78qla2xmzJA8PlQl0-35" value="4&lt;br&gt;&lt;font color=&quot;#cccccc&quot;&gt;12345&lt;/font&gt;" style="rounded=0;whiteSpace=wrap;html=1;" parent="1" vertex="1">
          <mxGeometry x="440" y="200" width="40" height="40" as="geometry" />
        </mxCell>
        <mxCell id="l3E78qla2xmzJA8PlQl0-36" value="5&lt;br&gt;&lt;font color=&quot;#cccccc&quot;&gt;12345&lt;/font&gt;" style="rounded=0;whiteSpace=wrap;html=1;" parent="1" vertex="1">
          <mxGeometry x="290" y="250" width="40" height="40" as="geometry" />
        </mxCell>
        <mxCell id="l3E78qla2xmzJA8PlQl0-37" value="6&lt;br&gt;&lt;font color=&quot;#cccccc&quot;&gt;12345&lt;/font&gt;" style="rounded=0;whiteSpace=wrap;html=1;" parent="1" vertex="1">
          <mxGeometry x="340" y="250" width="40" height="40" as="geometry" />
        </mxCell>
        <mxCell id="l3E78qla2xmzJA8PlQl0-38" value="7&lt;br&gt;&lt;font color=&quot;#cccccc&quot;&gt;12345&lt;/font&gt;" style="rounded=0;whiteSpace=wrap;html=1;" parent="1" vertex="1">
          <mxGeometry x="390" y="250" width="40" height="40" as="geometry" />
        </mxCell>
        <mxCell id="l3E78qla2xmzJA8PlQl0-39" value="8&lt;br&gt;&lt;font color=&quot;#cccccc&quot;&gt;12345&lt;/font&gt;" style="rounded=0;whiteSpace=wrap;html=1;" parent="1" vertex="1">
          <mxGeometry x="440" y="250" width="40" height="40" as="geometry" />
        </mxCell>
        <mxCell id="l3E78qla2xmzJA8PlQl0-40" value="9&lt;br&gt;&lt;font color=&quot;#cccccc&quot;&gt;12345&lt;/font&gt;" style="rounded=0;whiteSpace=wrap;html=1;" parent="1" vertex="1">
          <mxGeometry x="290" y="300" width="40" height="40" as="geometry" />
        </mxCell>
        <mxCell id="l3E78qla2xmzJA8PlQl0-41" value="10&lt;br&gt;&lt;font color=&quot;#cccccc&quot;&gt;12345&lt;/font&gt;" style="rounded=0;whiteSpace=wrap;html=1;" parent="1" vertex="1">
          <mxGeometry x="340" y="300" width="40" height="40" as="geometry" />
        </mxCell>
        <mxCell id="l3E78qla2xmzJA8PlQl0-42" value="11&lt;br&gt;&lt;font color=&quot;#cccccc&quot;&gt;12345&lt;/font&gt;" style="rounded=0;whiteSpace=wrap;html=1;" parent="1" vertex="1">
          <mxGeometry x="390" y="300" width="40" height="40" as="geometry" />
        </mxCell>
        <mxCell id="l3E78qla2xmzJA8PlQl0-43" value="12&lt;br&gt;&lt;font color=&quot;#cccccc&quot;&gt;12345&lt;/font&gt;" style="rounded=0;whiteSpace=wrap;html=1;" parent="1" vertex="1">
          <mxGeometry x="440" y="300" width="40" height="40" as="geometry" />
        </mxCell>
        <mxCell id="l3E78qla2xmzJA8PlQl0-46" value="2011&lt;br&gt;&lt;font color=&quot;#cccccc&quot;&gt;12345&lt;/font&gt;" style="rounded=0;whiteSpace=wrap;html=1;" parent="1" vertex="1">
          <mxGeometry x="200" y="300" width="40" height="40" as="geometry" />
        </mxCell>
        <mxCell id="l3E78qla2xmzJA8PlQl0-47" value="2012&lt;br&gt;&lt;font color=&quot;#cccccc&quot;&gt;12345&lt;/font&gt;" style="rounded=0;whiteSpace=wrap;html=1;" parent="1" vertex="1">
          <mxGeometry x="150" y="300" width="40" height="40" as="geometry" />
        </mxCell>
        <mxCell id="l3E78qla2xmzJA8PlQl0-48" value="2013&lt;br&gt;&lt;font color=&quot;#cccccc&quot;&gt;12345&lt;/font&gt;" style="rounded=0;whiteSpace=wrap;html=1;" parent="1" vertex="1">
          <mxGeometry x="100" y="300" width="40" height="40" as="geometry" />
        </mxCell>
        <mxCell id="l3E78qla2xmzJA8PlQl0-49" value="2014&lt;br&gt;&lt;font color=&quot;#cccccc&quot;&gt;12345&lt;/font&gt;" style="rounded=0;whiteSpace=wrap;html=1;" parent="1" vertex="1">
          <mxGeometry x="50" y="300" width="40" height="40" as="geometry" />
        </mxCell>
        <mxCell id="l3E78qla2xmzJA8PlQl0-50" value="2015&lt;br&gt;&lt;font color=&quot;#cccccc&quot;&gt;12345&lt;/font&gt;" style="rounded=0;whiteSpace=wrap;html=1;" parent="1" vertex="1">
          <mxGeometry x="200" y="250" width="40" height="40" as="geometry" />
        </mxCell>
        <mxCell id="l3E78qla2xmzJA8PlQl0-51" value="2016&lt;br&gt;&lt;font color=&quot;#cccccc&quot;&gt;12345&lt;/font&gt;" style="rounded=0;whiteSpace=wrap;html=1;" parent="1" vertex="1">
          <mxGeometry x="150" y="250" width="40" height="40" as="geometry" />
        </mxCell>
        <mxCell id="l3E78qla2xmzJA8PlQl0-52" value="2017&lt;br&gt;&lt;font color=&quot;#cccccc&quot;&gt;12345&lt;/font&gt;" style="rounded=0;whiteSpace=wrap;html=1;" parent="1" vertex="1">
          <mxGeometry x="100" y="250" width="40" height="40" as="geometry" />
        </mxCell>
        <mxCell id="l3E78qla2xmzJA8PlQl0-53" value="2018&lt;br&gt;&lt;font color=&quot;#cccccc&quot;&gt;12345&lt;/font&gt;" style="rounded=0;whiteSpace=wrap;html=1;" parent="1" vertex="1">
          <mxGeometry x="50" y="250" width="40" height="40" as="geometry" />
        </mxCell>
        <mxCell id="l3E78qla2xmzJA8PlQl0-54" value="2019&lt;br&gt;&lt;font color=&quot;#cccccc&quot;&gt;12345&lt;/font&gt;" style="rounded=0;whiteSpace=wrap;html=1;" parent="1" vertex="1">
          <mxGeometry x="200" y="200" width="40" height="40" as="geometry" />
        </mxCell>
        <mxCell id="l3E78qla2xmzJA8PlQl0-55" value="2020&lt;br&gt;&lt;font color=&quot;#cccccc&quot;&gt;12345&lt;/font&gt;" style="rounded=0;whiteSpace=wrap;html=1;" parent="1" vertex="1">
          <mxGeometry x="150" y="200" width="40" height="40" as="geometry" />
        </mxCell>
        <mxCell id="l3E78qla2xmzJA8PlQl0-56" value="2021&lt;br&gt;&lt;font color=&quot;#cccccc&quot;&gt;12345&lt;/font&gt;" style="rounded=0;whiteSpace=wrap;html=1;" parent="1" vertex="1">
          <mxGeometry x="100" y="200" width="40" height="40" as="geometry" />
        </mxCell>
        <mxCell id="l3E78qla2xmzJA8PlQl0-57" value="2022&lt;br&gt;&lt;font color=&quot;#cccccc&quot;&gt;12345&lt;/font&gt;" style="rounded=0;whiteSpace=wrap;html=1;" parent="1" vertex="1">
          <mxGeometry x="50" y="200" width="40" height="40" as="geometry" />
        </mxCell>
        <mxCell id="l3E78qla2xmzJA8PlQl0-58" value="2005&lt;br&gt;&lt;font color=&quot;#cccccc&quot;&gt;12345&lt;/font&gt;" style="rounded=0;whiteSpace=wrap;html=1;" parent="1" vertex="1">
          <mxGeometry x="100" y="400" width="40" height="40" as="geometry" />
        </mxCell>
        <mxCell id="l3E78qla2xmzJA8PlQl0-59" value="2006&lt;br&gt;&lt;font color=&quot;#cccccc&quot;&gt;12345&lt;/font&gt;" style="rounded=0;whiteSpace=wrap;html=1;" parent="1" vertex="1">
          <mxGeometry x="50" y="400" width="40" height="40" as="geometry" />
        </mxCell>
        <mxCell id="l3E78qla2xmzJA8PlQl0-60" value="2007&lt;br&gt;&lt;font color=&quot;#cccccc&quot;&gt;12345&lt;/font&gt;" style="rounded=0;whiteSpace=wrap;html=1;" parent="1" vertex="1">
          <mxGeometry x="200" y="350" width="40" height="40" as="geometry" />
        </mxCell>
        <mxCell id="l3E78qla2xmzJA8PlQl0-61" value="2008&lt;br&gt;&lt;font color=&quot;#cccccc&quot;&gt;12345&lt;/font&gt;" style="rounded=0;whiteSpace=wrap;html=1;" parent="1" vertex="1">
          <mxGeometry x="150" y="350" width="40" height="40" as="geometry" />
        </mxCell>
        <mxCell id="l3E78qla2xmzJA8PlQl0-62" value="2009&lt;br&gt;&lt;font color=&quot;#cccccc&quot;&gt;12345&lt;/font&gt;" style="rounded=0;whiteSpace=wrap;html=1;" parent="1" vertex="1">
          <mxGeometry x="100" y="350" width="40" height="40" as="geometry" />
        </mxCell>
        <mxCell id="l3E78qla2xmzJA8PlQl0-63" value="2010&lt;br&gt;&lt;font color=&quot;#cccccc&quot;&gt;12345&lt;/font&gt;" style="rounded=0;whiteSpace=wrap;html=1;" parent="1" vertex="1">
          <mxGeometry x="50" y="350" width="40" height="40" as="geometry" />
        </mxCell>
        <mxCell id="l3E78qla2xmzJA8PlQl0-64" value="2003&lt;br&gt;&lt;font color=&quot;#cccccc&quot;&gt;12345&lt;/font&gt;" style="rounded=0;whiteSpace=wrap;html=1;" parent="1" vertex="1">
          <mxGeometry x="200" y="400" width="40" height="40" as="geometry" />
        </mxCell>
        <mxCell id="l3E78qla2xmzJA8PlQl0-65" value="2004&lt;br&gt;&lt;font color=&quot;#cccccc&quot;&gt;12345&lt;/font&gt;" style="rounded=0;whiteSpace=wrap;html=1;" parent="1" vertex="1">
          <mxGeometry x="150" y="400" width="40" height="40" as="geometry" />
        </mxCell>
        <mxCell id="gcRcm8Jods9z5z1IxG55-1" value="&lt;font color=&quot;#000000&quot;&gt;Год&lt;/font&gt;" style="text;html=1;strokeColor=none;fillColor=none;align=center;verticalAlign=middle;whiteSpace=wrap;rounded=0;fontColor=#CCCCCC;" vertex="1" parent="1">
          <mxGeometry x="40" y="160" width="210" height="30" as="geometry" />
        </mxCell>
        <mxCell id="gcRcm8Jods9z5z1IxG55-2" value="&lt;font color=&quot;#000000&quot;&gt;Месяц&lt;/font&gt;" style="text;html=1;strokeColor=none;fillColor=none;align=center;verticalAlign=middle;whiteSpace=wrap;rounded=0;fontColor=#CCCCCC;" vertex="1" parent="1">
          <mxGeometry x="280" y="160" width="210" height="30" as="geometry" />
        </mxCell>
        <mxCell id="gcRcm8Jods9z5z1IxG55-3" value="&lt;font color=&quot;#000000&quot;&gt;День&lt;/font&gt;" style="text;html=1;strokeColor=none;fillColor=none;align=center;verticalAlign=middle;whiteSpace=wrap;rounded=0;fontColor=#CCCCCC;" vertex="1" parent="1">
          <mxGeometry x="520" y="160" width="210" height="30" as="geometry" />
        </mxCell>
        <mxCell id="gcRcm8Jods9z5z1IxG55-31" value="Дата (можно редактировать)" style="html=1;shadow=0;dashed=0;shape=mxgraph.bootstrap.radioButton2;labelPosition=right;verticalLabelPosition=middle;align=left;verticalAlign=middle;gradientColor=#DEDEDE;fillColor=#EDEDED;checked=1;spacing=5;checkedFill=#0085FC;checkedStroke=#ffffff;sketch=0;fontColor=#000000;" vertex="1" parent="1">
          <mxGeometry x="-230" y="200" width="10" height="10" as="geometry" />
        </mxCell>
        <mxCell id="gcRcm8Jods9z5z1IxG55-34" value="Дата открытия файла" style="html=1;shadow=0;dashed=0;shape=mxgraph.bootstrap.radioButton2;labelPosition=right;verticalLabelPosition=middle;align=left;verticalAlign=middle;gradientColor=#DEDEDE;fillColor=#EDEDED;checked=0;spacing=5;checkedFill=#0085FC;checkedStroke=#ffffff;sketch=0;fontColor=#000000;" vertex="1" parent="1">
          <mxGeometry x="-230" y="220" width="10" height="10" as="geometry" />
        </mxCell>
        <mxCell id="gcRcm8Jods9z5z1IxG55-35" value="Дата изменения содержимого файла" style="html=1;shadow=0;dashed=0;shape=mxgraph.bootstrap.radioButton2;labelPosition=right;verticalLabelPosition=middle;align=left;verticalAlign=middle;gradientColor=#DEDEDE;fillColor=#EDEDED;checked=0;spacing=5;checkedFill=#0085FC;checkedStroke=#ffffff;sketch=0;fontColor=#000000;" vertex="1" parent="1">
          <mxGeometry x="-230" y="240" width="10" height="10" as="geometry" />
        </mxCell>
        <mxCell id="gcRcm8Jods9z5z1IxG55-36" value="Дата изменения свойств файла" style="html=1;shadow=0;dashed=0;shape=mxgraph.bootstrap.radioButton2;labelPosition=right;verticalLabelPosition=middle;align=left;verticalAlign=middle;gradientColor=#DEDEDE;fillColor=#EDEDED;checked=0;spacing=5;checkedFill=#0085FC;checkedStroke=#ffffff;sketch=0;fontColor=#000000;" vertex="1" parent="1">
          <mxGeometry x="-230" y="260" width="10" height="10" as="geometry" />
        </mxCell>
        <mxCell id="gcRcm8Jods9z5z1IxG55-37" value="Дата создания файла" style="html=1;shadow=0;dashed=0;shape=mxgraph.bootstrap.radioButton2;labelPosition=right;verticalLabelPosition=middle;align=left;verticalAlign=middle;gradientColor=#DEDEDE;fillColor=#EDEDED;checked=0;spacing=5;checkedFill=#0085FC;checkedStroke=#ffffff;sketch=0;fontColor=#000000;" vertex="1" parent="1">
          <mxGeometry x="-230" y="280" width="10" height="10" as="geometry" />
        </mxCell>
        <mxCell id="gcRcm8Jods9z5z1IxG55-38" value="Дата добавления в БД" style="html=1;shadow=0;dashed=0;shape=mxgraph.bootstrap.radioButton2;labelPosition=right;verticalLabelPosition=middle;align=left;verticalAlign=middle;gradientColor=#DEDEDE;fillColor=#EDEDED;checked=0;spacing=5;checkedFill=#0085FC;checkedStroke=#ffffff;sketch=0;fontColor=#000000;" vertex="1" parent="1">
          <mxGeometry x="-230" y="300" width="10" height="10" as="geometry" />
        </mxCell>
        <mxCell id="gcRcm8Jods9z5z1IxG55-39" value="Дата обновления в БД" style="html=1;shadow=0;dashed=0;shape=mxgraph.bootstrap.radioButton2;labelPosition=right;verticalLabelPosition=middle;align=left;verticalAlign=middle;gradientColor=#DEDEDE;fillColor=#EDEDED;checked=0;spacing=5;checkedFill=#0085FC;checkedStroke=#ffffff;sketch=0;fontColor=#000000;" vertex="1" parent="1">
          <mxGeometry x="-230" y="320" width="10" height="10" as="geometry" />
        </mxCell>
        <mxCell id="gcRcm8Jods9z5z1IxG55-42" value="Сортировка" style="text;html=1;strokeColor=none;fillColor=none;align=center;verticalAlign=middle;whiteSpace=wrap;rounded=0;fontColor=#000000;" vertex="1" parent="1">
          <mxGeometry x="-240" y="160" width="240" height="30" as="geometry" />
        </mxCell>
      </root>
    </mxGraphModel>
  </diagram>
</mxfile>
